<?xml version="1.0" encoding="UTF-8"?>
<svg width="24px" height="24px" viewBox="0 0 24 24" version="1.1" xmlns="http://www.w3.org/2000/svg" xmlns:xlink="http://www.w3.org/1999/xlink">
    <title>Icon - Search</title>
    <defs>
        <rect id="path-1" x="0" y="0" width="24" height="24"></rect>
    </defs>
    <g id="Page-1" stroke="none" stroke-width="1" fill="none" fill-rule="evenodd">
        <g id="Mis-juegos" transform="translate(-40.000000, -72.000000)">
            <g id="Search" transform="translate(24.000000, 60.000000)">
                <g id="Icon---Search" transform="translate(16.000000, 12.000000)">
                    <mask id="mask-2" fill="white">
                        <use xlink:href="#path-1"></use>
                    </mask>
                    <g id="Icon---Search-(Background/Mask)"></g>
                    <path d="M2,11.4139976 C2,16.6128687 6.30742915,20.8273848 11.6209133,20.8273848 C13.8160736,20.8273848 15.8395233,20.1080649 17.4584785,18.8971921 L20.3566126,21.7254499 C20.7332513,22.0930064 21.343112,22.0922298 21.7187716,21.7237153 C22.094433,21.3552008 22.0936412,20.7584949 21.7170006,20.3909385 L18.8655778,17.6082676 C20.3452388,15.9529037 21.2418265,13.785897 21.2418265,11.4139976 C21.2418265,6.21512694 16.9343978,2.00061035 11.6209133,2.00061035 C6.30742915,2.00061035 2,6.21512694 2,11.4139976 Z M11.6209133,3.88544446 C15.8704829,3.88544446 19.3154397,7.25609202 19.3154397,11.4139976 C19.3154397,15.5719027 15.8704829,18.9425507 11.6209133,18.9425507 C7.37134317,18.9425507 3.92638686,15.5719027 3.92638686,11.4139976 C3.92638686,7.25609202 7.37134317,3.88544446 11.6209133,3.88544446 Z" id="Vector" fill="#7A83CD" mask="url(#mask-2)"></path>
                </g>
            </g>
        </g>
    </g>
</svg>