<?xml version="1.0" encoding="UTF-8"?>
<svg width="34px" height="41px" viewBox="0 0 34 41" version="1.1" xmlns="http://www.w3.org/2000/svg" xmlns:xlink="http://www.w3.org/1999/xlink">
    <title>Icon - Home</title>
    <g id="Page-1" stroke="none" stroke-width="1" fill="none" fill-rule="evenodd">
        <g id="Mis-juegos" transform="translate(-45.000000, -729.000000)">
            <g id="Buttom-Navigation" transform="translate(0.000000, 710.000000)">
                <g id="Icon---Home" transform="translate(45.000000, 19.000000)">
                    <path d="M13.3698473,1.455791 C12.6818147,1.94907427 11.9826894,2.54333735 11.4047894,3.03455782 C11.1368837,3.26228023 10.8949466,3.46792817 10.6923342,3.63102674 C10.6741638,3.64565325 10.6565113,3.66091108 10.6394086,3.67677212 C10.2357588,4.05110979 9.87227702,4.37351704 9.54088283,4.6656065 L9.40679789,4.7837081 C9.12946486,5.02789831 8.86899018,5.25724506 8.63446474,5.47373295 C8.08944607,5.97683477 7.61298168,6.47367907 7.25288755,7.10203648 C6.53409457,8.35631657 6.40039062,9.93553734 6.40039062,12.7130003 C6.40039062,14.8056631 6.52199411,16.4631596 6.85780054,17.7554264 C7.2004056,19.0738583 7.78530037,20.0839443 8.75013947,20.7765064 C9.68307304,21.4461651 10.8511381,21.7294674 12.1684065,21.8652458 C13.4759083,22 15.0708885,22 16.9376831,22 L17.0350456,22 C18.9018412,22 20.4968786,22 21.8043804,21.8652458 C23.1216488,21.7294674 24.2897129,21.4461651 25.2226467,20.7765064 C26.1874866,20.0839443 26.7723808,19.0738583 27.1149864,17.7554264 C27.4507923,16.4631596 27.5723953,14.8056631 27.5723953,12.7130003 C27.5723953,9.93565178 27.4389515,8.35645103 26.7204933,7.10220146 C26.3605347,6.47380304 25.8841896,5.97693062 25.3392296,5.47379351 C25.1045036,5.25708055 24.8438206,5.02752876 24.5662003,4.78306389 L24.4328899,4.6656332 C24.101511,4.37353325 23.7380371,4.0511198 23.3343773,3.67677212 C23.3173294,3.66096163 23.2997322,3.64575028 23.2816238,3.63116646 C23.0866871,3.47417569 22.859663,3.28287244 22.6100025,3.07249451 C22.0142527,2.5704844 21.2895088,1.95977831 20.5644941,1.44761395 C19.54702,0.728849888 18.2647448,0 16.9583921,0 C15.6477289,0 14.3749104,0.735213399 13.3698473,1.455791 Z M13.078125,15.135376 C13.078125,15.6876612 13.5258403,16.135376 14.078125,16.135376 L19.8931255,16.135376 C20.4454107,16.135376 20.8931255,15.6876612 20.8931255,15.135376 C20.8931255,14.5830908 20.4454107,14.135376 19.8931255,14.135376 L14.078125,14.135376 C13.5258403,14.135376 13.078125,14.5830908 13.078125,15.135376 Z" id="Vector" fill="#FD6A03"></path>
                    <text id="INICIO" font-family="Montserrat-Bold, Montserrat" font-size="8" font-weight="bold" letter-spacing="1.11111111" fill="#B2B5CD">
                        <tspan x="0.381333333" y="39">INICIO</tspan>
                    </text>
                </g>
            </g>
        </g>
    </g>
</svg>