<?xml version="1.0" encoding="UTF-8"?>
<svg width="63px" height="39px" viewBox="0 0 63 39" version="1.1" xmlns="http://www.w3.org/2000/svg" xmlns:xlink="http://www.w3.org/1999/xlink">
    <title>Icon - Controller</title>
    <g id="Page-1" stroke="none" stroke-width="1" fill="none" fill-rule="evenodd">
        <g id="Mis-juegos" transform="translate(-156.000000, -731.000000)">
            <g id="Buttom-Navigation" transform="translate(0.000000, 710.000000)">
                <g id="Icon---Controller" transform="translate(156.000000, 21.000000)">
                    <circle id="Oval" fill="#B2B5CD" cx="40" cy="7" r="1"></circle>
                    <circle id="Oval-Copy" fill="#B2B5CD" cx="38" cy="9" r="1"></circle>
                    <circle id="Oval-Copy-2" fill="#B2B5CD" cx="40" cy="11" r="1"></circle>
                    <circle id="Oval-Copy-3" fill="#B2B5CD" cx="42" cy="9" r="1"></circle>
                    <rect id="Rectangle" stroke="#B2B5CD" fill="#B2B5CD" x="22.5" y="6.5" width="1" height="5"></rect>
                    <path d="M23.5,6.5 L23.5,11.5 L22.5,11.5 L22.5,6.5 L23.5,6.5 Z" id="Rectangle" stroke="#B2B5CD" fill="#B2B5CD" transform="translate(23.000000, 9.000000) rotate(-270.000000) translate(-23.000000, -9.000000) "></path>
                    <path d="M31.0003234,1 C32.8269294,1 34.0592582,1.23918599 34.8719801,1.69502527 C35.0104265,1.77267709 35.1498569,1.86399734 35.2907862,1.96972306 C35.4472132,1.88594841 35.606137,1.8082667 35.7672015,1.73670453 C36.670309,1.335447 37.671087,1.1130935 38.7239706,1.1130935 C40.7336239,1.1130935 42.5531925,1.92430998 43.8702369,3.23638956 C45.1859118,4.54710478 46,6.35775073 46,8.35795997 L46,8.35795997 L46.0000525,9.74225811 C45.997873,10.5158756 45.988659,11.3457406 45.9550987,12.1846355 L45.9550987,12.1846355 L45.9316806,12.6945208 C45.8209101,14.8174872 45.5526249,16.9951708 44.7670011,18.4877447 C44.5097051,18.9765705 44.1975706,19.3862257 43.7919938,19.6569574 C43.4559235,19.8812918 43.0562321,20 42.5861177,20 C40.3033183,20 37.2702695,17.7014553 34.9424701,15.0578308 C34.7252334,14.8111204 34.5117552,14.5586977 34.3036908,14.3025518 C34.0946886,14.5332951 33.8694167,14.7287607 33.6297575,14.8916812 C32.9610628,15.3462607 32.0979702,15.6034815 31.0003234,15.6034815 C29.9022413,15.6034815 29.038906,15.345978 28.3689811,14.8912291 C28.1292491,14.7284976 27.9038492,14.5334242 27.6943187,14.3034756 C27.4864815,14.5597237 27.2734813,14.8116449 27.0567346,15.0578719 C24.7296194,17.7015044 21.6966394,20 19.4138823,20 C18.8705647,20 18.4218456,19.8391122 18.0555012,19.5450351 C17.5829398,19.165694 17.2432771,18.594655 16.9748135,17.9249085 C16.1008703,15.7446488 16.0135401,12.5708072 16.000891,9.99019522 L16.000891,9.99019522 L16,8.35792502 C16,6.35775073 16.8140882,4.54710478 18.1297631,3.23638956 C19.4468075,1.92430998 21.2663761,1.1130935 23.2760294,1.1130935 C24.3291257,1.1130935 25.3300913,1.33554146 26.2338379,1.73647584 C26.3947957,1.80788249 26.5536258,1.88537483 26.7100534,1.96884604 C27.9409858,1.23931356 29.1734335,1 31.0003234,1 Z" id="Combined-Shape" stroke="#B2B5CD" stroke-width="2"></path>
                    <text id="MIS-JUEGOS" font-family="Montserrat-Bold, Montserrat" font-size="8" font-weight="bold" letter-spacing="1.11111111" fill="#B2B5CD">
                        <tspan x="0.248888889" y="37">MIS JUEGOS</tspan>
                    </text>
                </g>
            </g>
        </g>
    </g>
</svg>