<?xml version="1.0" encoding="UTF-8"?>
<svg width="37px" height="41px" viewBox="0 0 37 41" version="1.1" xmlns="http://www.w3.org/2000/svg" xmlns:xlink="http://www.w3.org/1999/xlink">
    <title>Icon - Perfil</title>
    <g id="Page-1" stroke="none" stroke-width="1" fill="none" fill-rule="evenodd">
        <g id="Mis-juegos" transform="translate(-296.000000, -729.000000)">
            <g id="Buttom-Navigation" transform="translate(0.000000, 710.000000)">
                <g id="Icon---Perfil" transform="translate(296.000000, 19.000000)">
                    <circle id="Oval" stroke="#B2B5CD" stroke-width="2" cx="18" cy="6" r="5"></circle>
                    <path d="M17.98423,14.3176459 C19.6175051,14.3176459 21.9165513,14.5900975 23.5564316,15.38237 C24.0806144,15.6356175 24.5358526,15.9388102 24.8395988,16.3270348 C25.0506479,16.5967812 25.1775757,16.9102465 25.1775757,17.2760825 C25.1775757,17.6419186 25.0506479,17.9553839 24.8395988,18.2251303 C24.5358526,18.6133549 24.0806144,18.9165476 23.5564316,19.1697951 C21.9165513,19.9620676 19.6175051,20.2345192 17.98423,20.2345192 C16.3525951,20.2345192 14.064776,19.9626582 12.4331184,19.1716769 C11.911279,18.9187039 11.4581635,18.6157327 11.1558661,18.2277806 C10.9451208,17.9573217 10.8186599,17.6429178 10.8186599,17.2760825 C10.8186599,16.9092473 10.9451208,16.5948434 11.1558661,16.3243845 C11.4581635,15.9364324 11.911279,15.6334611 12.4331184,15.3804882 C14.064776,14.5895069 16.3525951,14.3176459 17.98423,14.3176459 Z" id="Oval-Copy-4" stroke="#B2B5CD" stroke-width="2"></path>
                    <text id="PERFIL" font-family="Montserrat-Bold, Montserrat" font-size="8" font-weight="bold" letter-spacing="1.11111111" fill="#B2B5CD">
                        <tspan x="0.741333333" y="39">PERFIL</tspan>
                    </text>
                </g>
            </g>
        </g>
    </g>
</svg>